<svg xmlns="http://www.w3.org/2000/svg" width="203.472" height="112.002" viewBox="0 0 203.472 112.002"><defs><style>.a{fill:#fff;}</style></defs><g transform="translate(-323.708 -227.889)"><path class="a" d="M389.042,228.56c12.347,2.665,22.981,8.348,31.448,17.821,1.045,1.169,1.969,2.445,3.157,3.932L417.6,253.88c-11.006-13.526-25.133-20.156-42.578-18.75a46.17,46.17,0,0,0-31.6,15.918c-18.465,20.754-15.06,49.876,1.79,66.966,19.068,19.339,52.229,19.6,71.808-3.823l6.111,3.568c-10.121,12.768-22.923,20.137-39.015,21.619l-8.461.053-1.659-.018a54.179,54.179,0,0,1-38.556-21.379,53.006,53.006,0,0,1-11.252-27.686l.049-2.835-.525-2.28v-5.019l.478-2.3,0-1.643c.223-1.373.37-2.763.682-4.116,3.611-15.655,11.944-27.963,25.844-36.36a58.37,58.37,0,0,1,19.943-7.49l1.7-.163.837-.258,12.185.053.915.261Z" transform="translate(0 0)"/><path class="a" d="M575.334,768.03l8.461-.053a.492.492,0,0,0-.035.513h-8.385A3.162,3.162,0,0,0,575.334,768.03Z" transform="translate(-199.684 -428.599)"/><path class="a" d="M324.183,519.378a.981.981,0,0,1-.475-.1v-2.789a2.977,2.977,0,0,1,.525.049Z" transform="translate(0 -229.029)"/><path class="a" d="M324.186,470.246l-.478,2.3v-2.231Z" transform="translate(0 -192.328)"/><path class="a" d="M324.233,507.967a2.983,2.983,0,0,0-.525-.049v-2.231Z" transform="translate(0 -220.453)"/><path class="a" d="M324.186,463.932l-.478.066v-1.673q.24-.028.482-.035Q324.188,463.11,324.186,463.932Z" transform="translate(0 -186.014)"/><path class="a" d="M568.955,768.168a3.179,3.179,0,0,1,.042.46H567.32a2,2,0,0,0-.024-.477Z" transform="translate(-193.305 -428.737)"/><path class="a" d="M448.18,349.886l4.934,2.788c-8.094,11.309-26.786,19.049-44.355,14.811a45.109,45.109,0,0,1-35.062-43.71c-.287-19.456,13.626-37.977,32.495-43.2,19.524-5.405,38.6,2.4,47.875,15.258l-5,2.906c-9.27-10.333-20.929-15.064-34.66-13.614-10.379,1.1-19.043,5.992-25.821,14.025-12.635,14.975-11.555,37.482,2.386,51.735C404.976,365.2,430.275,367.985,448.18,349.886Z" transform="translate(-39.667 -40.433)"/><path class="a" d="M1008.89,446.941v3.607H992.666l-.482,3.834h12.958V458H992.424v5.415c5.53.977,11.013.012,16.481.589v3.336c-5.228,0-10.419.166-15.592-.066-2.8-.126-4.583-2.46-4.647-5.359q-.106-4.735-.008-9.474c.067-3.16,2.008-5.358,5.155-5.46C998.73,446.824,1003.657,446.941,1008.89,446.941Z" transform="translate(-527.648 -173.801)"/><path class="a" d="M798.7,463.979v3.381c-5.11,0-10.113.125-15.1-.047-3.018-.1-5.039-2.477-5.108-5.563-.067-2.972-.043-5.946-.008-8.919.042-3.564,2.109-5.829,5.635-5.911,4.743-.11,9.491-.027,14.471-.027v3.621h-15.98l-.623,3.732h13.171v3.622H782.273v5.455C787.721,464.431,793.114,463.387,798.7,463.979Z" transform="translate(-360.87 -173.771)"/><path class="a" d="M668.2,446.892c4.45,0,8.631-.1,12.8.033a5.48,5.48,0,0,1,5.424,4.732c.422,2.312-.839,4.445-3.406,5.779-.4.209-.784.454-1.224.712l4.486,9.029h-3.944c-.851-1.671-1.778-3.475-2.691-5.286-2.042-4.047-2.971-4.495-7.962-3.677v8.975H668.2Zm3.52,7.5c3.116,0,5.885.088,8.647-.026,2.486-.1,3-1.407,1.466-3.721H671.722Z" transform="translate(-273.381 -173.768)"/><path class="a" d="M1123.175,458.848l4.545,9.16h-3.935c-.789-1.541-1.713-3.323-2.615-5.115-2.15-4.268-3.054-4.723-8.069-3.888v8.968h-3.47V447.915c4.676,0,9.377-.175,14.055.076,2.248.121,3.925,2.3,4.184,4.6a5.422,5.422,0,0,1-2.55,5.218A14.626,14.626,0,0,1,1123.175,458.848Zm-10.045-3.664c3.105,0,5.875.08,8.636-.023,2.5-.094,3.013-1.356,1.507-3.729h-10.144Z" transform="translate(-623.687 -174.559)"/><path class="a" d="M570.517,457.051a10.2,10.2,0,0,1-10.256,10.255,10.267,10.267,0,1,1,10.256-10.255Zm-10.246-6.585a6.583,6.583,0,0,0-6.553,6.575,6.657,6.657,0,0,0,6.546,6.624,6.6,6.6,0,1,0,.008-13.2Z" transform="translate(-179.655 -173.697)"/><path class="a" d="M1224.152,458.043v9.375H1220.8V447.105c4.537,0,8.98-.167,13.4.06a5.392,5.392,0,0,1,4.885,5.522,5.727,5.727,0,0,1-5.427,5.341c-1.575.083-3.159.015-4.739.016Zm10.354-7.2h-10.181v3.689c3.035,0,5.886.1,8.727-.031C1235.358,454.4,1235.818,453.205,1234.507,450.848Z" transform="translate(-711.904 -173.917)"/><path class="a" d="M453.6,447.028V450.5c-3.335,0-6.656-.1-9.97.023-4.309.154-6.928,3.074-6.671,7.217.213,3.435,2.866,5.87,6.78,6.044,2.6.116,5.21.025,7.815.04.641,0,1.281.065,2.044.106v3.136c-4.075,0-8.283.484-12.327-.122-5.073-.762-8.2-5.3-7.961-10.244a9.911,9.911,0,0,1,9.08-9.651c2.948-.3,5.945-.13,8.92-.15C452.033,446.9,452.757,446.98,453.6,447.028Z" transform="translate(-86.967 -173.779)"/><path class="a" d="M900.85,495.19v-3.162h13.365c.051,1,.1,1.969.162,3.162Z" transform="translate(-458.004 -209.614)"/></g></svg>