<svg xmlns="http://www.w3.org/2000/svg" xmlns:xlink="http://www.w3.org/1999/xlink" width="24.75" height="27" viewBox="0 0 24.75 27"><defs><style>.a{fill:url(#a);}</style><linearGradient id="a" x1="0.5" x2="0.5" y2="1" gradientUnits="objectBoundingBox"><stop offset="0"/><stop offset="1" stop-color="#707070"/></linearGradient></defs><g transform="translate(-5.625 -4.5)"><path class="a" d="M12.938,31.5h3.375a.564.564,0,0,0,.563-.562V5.063a.564.564,0,0,0-.562-.562H12.938a.564.564,0,0,0-.562.563V30.938A.564.564,0,0,0,12.938,31.5Z"/><path class="a" d="M6.188,31.5H9.563a.564.564,0,0,0,.563-.562V20.813a.564.564,0,0,0-.562-.562H6.188a.564.564,0,0,0-.562.563V30.938A.564.564,0,0,0,6.188,31.5Z"/><path class="a" d="M19.695,31.5h3.361a.567.567,0,0,0,.57-.57V16.32a.567.567,0,0,0-.57-.57H19.695a.567.567,0,0,0-.57.57V30.93A.567.567,0,0,0,19.695,31.5Z"/><path class="a" d="M25.875,9.57V30.93a.567.567,0,0,0,.57.57h3.361a.567.567,0,0,0,.57-.57V9.57a.567.567,0,0,0-.57-.57H26.445A.567.567,0,0,0,25.875,9.57Z"/></g></svg>