<svg xmlns="http://www.w3.org/2000/svg" xmlns:xlink="http://www.w3.org/1999/xlink" width="26.694" height="30.507" viewBox="0 0 26.694 30.507"><defs><style>.a{fill:url(#a);}</style><linearGradient id="a" x1="1.471" y1="1.486" x2="-0.056" y2="0.043" gradientUnits="objectBoundingBox"><stop offset="0"/><stop offset="1" stop-color="#707070"/></linearGradient></defs><path class="a" d="M13.347,15.254A7.627,7.627,0,1,0,5.72,7.627,7.626,7.626,0,0,0,13.347,15.254ZM19.055,17.2,16.207,28.6,14.3,20.5l1.907-3.337h-5.72L12.394,20.5l-1.907,8.1L7.639,17.2A7.994,7.994,0,0,0,0,25.169v2.479a2.861,2.861,0,0,0,2.86,2.86H23.834a2.861,2.861,0,0,0,2.86-2.86V25.169A7.994,7.994,0,0,0,19.055,17.2Z"/></svg>