<svg xmlns="http://www.w3.org/2000/svg" width="32.427" height="28.824" viewBox="0 0 32.427 28.824"><defs><style>.a{fill:#3f63f5;}</style></defs><path class="a" d="M28.414,18.015h-16.5l.368,1.8H27.391a1.351,1.351,0,0,1,1.318,1.651L28.4,22.834a3.154,3.154,0,1,1-3.58.586h-11.8a3.153,3.153,0,1,1-3.775-.482L5.285,3.6H1.351A1.351,1.351,0,0,1,0,2.252v-.9A1.351,1.351,0,0,1,1.351,0H7.123A1.351,1.351,0,0,1,8.447,1.08L8.963,3.6H31.076a1.351,1.351,0,0,1,1.318,1.651l-2.661,11.71A1.351,1.351,0,0,1,28.414,18.015ZM22.969,9.458h-2.7V7.206a.9.9,0,0,0-.9-.9h-.9a.9.9,0,0,0-.9.9V9.458h-2.7a.9.9,0,0,0-.9.9v.9a.9.9,0,0,0,.9.9h2.7v2.252a.9.9,0,0,0,.9.9h.9a.9.9,0,0,0,.9-.9V12.16h2.7a.9.9,0,0,0,.9-.9v-.9A.9.9,0,0,0,22.969,9.458Z"/></svg>